<?xml version="1.0" encoding="UTF-8"?>
<!-- Created with Inkscape (http://www.inkscape.org/) -->
<svg width="109.16mm" height="26.925mm" version="1.1" viewBox="0 0 109.16 26.925" xmlns="http://www.w3.org/2000/svg">
 <g transform="translate(-31.314 -137.67)" fill="#fff" stroke-width=".26">
  <path d="m129.85 137.67h10.628v11.799zm-11.248 6.9246h-0.10335c0-2.3656 0.64308-4.1111 1.9292-5.2365s3.2671-1.6881 5.9428-1.6881l14.108 17.122c0 2.2738-0.61437 3.8987-1.8431 4.8748-1.1943 0.95314-3.1465 1.4297-5.8566 1.4297zm-0.0517 4.6509 10.232 11.868h-10.232z"/>
  <path d="m105.14 137.67h1.447c4.8691 0 7.7629 2.1417 8.6816 6.4251 0.28709 1.2976 0.43064 2.8135 0.43064 4.5475s-0.18374 3.3877-0.55122 4.9609c-0.35599 1.5732-0.90721 2.9168-1.6536 4.0308-1.5503 2.3197-3.8528 3.4795-6.9074 3.4795h-1.4469zm-12.127 0h9.2677l-3.8e-4 23.409h-9.2674z"/>
  <path d="m90.154 156.45c0 5.4318-2.7274 8.1476-8.1821 8.1476h-1.068v-26.872h9.2501z" aria-label="icyDS"/>
  <path d="m68.519 137.73h9.5257v17.57h-1.5503c-4.226 0-6.7466-1.4354-7.562-4.3064-0.27561-0.93017-0.41341-2.0039-0.41341-3.2212z"/>
  <path d="m56.151 137.73h9.5084v9.8357h-1.223c-2.9628 0-5.0872-0.51102-6.3734-1.5331-1.2747-1.022-1.912-2.7618-1.912-5.2193zm0 13.074h8.6127v0.48231c0 1.068-0.3847 1.9694-1.1541 2.7044-0.94166 0.87276-2.2795 1.3091-4.0135 1.3091h-3.4451z"/>
  <path d="m43.438 146.72c0-1.2632 0.16651-2.4345 0.49954-3.514 0.33302-1.091 0.84979-2.0441 1.5503-2.8594 1.4929-1.7455 3.6518-2.6183 6.4768-2.6183h1.3264v17.57h-0.89572c-2.9054 0-5.1389-0.79237-6.7007-2.3771-1.5044-1.5044-2.2565-3.5714-2.2565-6.2012z"/>
  <path d="m31.314 137.73h9.2673v17.553h-9.2673z"/>
 </g>
</svg>
